<?xml version="1.0" encoding="UTF-8" standalone="no"?>
<!DOCTYPE svg PUBLIC "-//W3C//DTD SVG 1.1//EN" "http://www.w3.org/Graphics/SVG/1.1/DTD/svg11.dtd">
<svg width="100%" height="100%" viewBox="0 0 4167 4167" version="1.1" xmlns="http://www.w3.org/2000/svg" xmlns:xlink="http://www.w3.org/1999/xlink" xml:space="preserve" xmlns:serif="http://www.serif.com/" style="fill-rule:evenodd;clip-rule:evenodd;stroke-linecap:round;stroke-linejoin:round;stroke-miterlimit:1.5;">
    <g>
        <circle cx="2100.07" cy="2069.97" r="1863.11" style="fill:#ffab00;stroke:#fff;stroke-width:2.08px;"/>
        <g>
            <path d="M2264.04,1007.11l-115.887,101.707l751.479,856.251l115.888,-101.707l-751.48,-856.251Z" style="fill:#fff;stroke:#fff;stroke-width:62.5px;"/>
            <path d="M1876.26,1007.11l115.888,101.707l-751.479,856.251l-115.888,-101.707l751.479,-856.251Z" style="fill:#fff;stroke:#fff;stroke-width:62.5px;"/>
            <path d="M2059.14,992.813l835.553,905.656l-1666.18,0l830.628,-905.656Z" style="fill:#fff;stroke:#fff;stroke-width:62.5px;"/>
            <circle cx="2066.14" cy="948.59" r="188.344" style="fill:#714b0c;stroke:#fff;stroke-width:62.5px;"/>
            <path d="M3240.06,2004.68c0,-86.095 -69.898,-155.994 -155.994,-155.994l-2013.22,-0c-86.096,-0 -155.994,69.899 -155.994,155.994l-0,902.834c-0,86.095 69.898,155.994 155.994,155.994l2013.22,-0c86.096,-0 155.994,-69.899 155.994,-155.994l0,-902.834Z" style="fill:#714b0c;stroke:#fff;stroke-width:62.5px;"/>
            <path d="M2000.03,1104.33c-0,0 -11.435,-1.97 -33.297,-15.551c-6.408,-3.981 -18.426,-11.7 -25.423,-18.61c-7.052,-6.964 -21.748,-21.296 -24.81,-26.988c-8.399,-15.609 -12.416,-28.495 -12.416,-28.495l-763.318,874.053l99.023,86.287l760.241,-870.696Z" style="fill:#714b0c;"/>
            <path d="M2136.64,1104.33c-0,0 11.435,-1.97 33.297,-15.551c6.408,-3.981 18.426,-11.7 25.423,-18.61c7.052,-6.964 21.747,-21.296 24.81,-26.988c8.399,-15.609 12.416,-28.495 12.416,-28.495l763.318,874.053l-99.023,86.287l-760.241,-870.696Z" style="fill:#714b0c;"/>
            <path d="M1219.61,2500.96l61.24,-0c21.651,-0 32.167,12.99 40.827,32.166l59.384,129.903l80.416,0l-68.044,-150.935c-9.279,-21.032 -17.321,-31.548 -34.022,-37.734c34.022,-13.608 71.137,-47.012 71.137,-108.871c-0,-84.127 -57.529,-113.819 -148.461,-113.819l-137.944,-0l-0,411.359l75.467,0l0,-162.069Zm0,-58.766l0,-130.522l43.301,0c58.766,0 90.932,6.805 90.932,59.385c0,47.012 -27.836,71.137 -72.374,71.137l-61.859,0Z" style="fill:#fff;fill-rule:nonzero;"/>
            <path d="M1630.35,2342.6c-98.355,-0 -150.935,80.416 -150.935,171.348c0,92.788 42.064,158.358 144.131,158.358c58.147,-0 98.973,-25.981 108.871,-34.641l-22.888,-48.868c-14.846,10.516 -41.445,27.218 -77.942,27.218c-52.58,-0 -75.467,-38.971 -77.942,-79.179c56.91,-0.619 175.06,-12.991 175.06,-108.253c0,-55.054 -37.734,-85.983 -98.355,-85.983Zm32.785,89.076c0,47.631 -78.56,58.147 -111.964,57.529c1.856,-45.776 25.362,-94.025 74.849,-94.025c22.269,-0 37.115,13.608 37.115,36.496Z" style="fill:#fff;fill-rule:nonzero;"/>
            <path d="M1855.52,2663.03l0,-201.04c0,-32.167 25.981,-62.477 63.096,-62.477c39.589,-0 46.394,29.073 46.394,66.807l-0,196.71l73.612,0l-0,-212.793c-0,-72.993 -36.497,-107.634 -98.356,-107.634c-40.826,-0 -73.611,17.32 -95.262,48.249l-6.186,-38.97l-61.858,-0l4.949,53.816l-0,257.332l73.611,0Z" style="fill:#fff;fill-rule:nonzero;"/>
            <path d="M2114.09,2233.11l0,335.892c0,43.301 -0.619,102.685 95.881,102.685c29.073,0 60.003,-8.66 78.56,-21.65l-18.557,-47.631c-9.898,6.186 -25.362,12.99 -42.064,12.99c-25.362,0 -40.208,-11.135 -40.208,-48.868l-0,-157.121l83.509,0l-0,-57.528l-83.509,-0l-0,-118.769l-73.612,0Z" style="fill:#fff;fill-rule:nonzero;"/>
            <path d="M2540.29,2520.75l-1.238,0l-102.685,-269.084l-84.127,-0l-23.507,411.359l71.756,0l15.465,-280.838l1.237,0l92.788,235.063l56.91,-0l95.262,-237.537l1.237,-0l15.465,283.312l71.756,0l-22.269,-411.359l-82.272,-0l-105.778,269.084Z" style="fill:#fff;fill-rule:nonzero;"/>
            <path d="M2952.27,2342.6c-98.355,-0 -150.935,80.416 -150.935,171.348c-0,92.788 42.064,158.358 144.13,158.358c58.147,-0 98.974,-25.981 108.871,-34.641l-22.887,-48.868c-14.846,10.516 -41.446,27.218 -77.942,27.218c-52.58,-0 -75.468,-38.971 -77.942,-79.179c56.91,-0.619 175.06,-12.991 175.06,-108.253c-0,-55.054 -37.734,-85.983 -98.355,-85.983Zm32.785,89.076c-0,47.631 -78.561,58.147 -111.964,57.529c1.855,-45.776 25.362,-94.025 74.849,-94.025c22.269,-0 37.115,13.608 37.115,36.496Z" style="fill:#fff;fill-rule:nonzero;"/>
        </g>
    </g>
</svg>
