<?xml version="1.0" encoding="UTF-8" standalone="no"?>
<svg
   class="ionicon"
   viewBox="0 0 512 512"
   version="1.1"
   id="svg8"
   sodipodi:docname="sunny-outline.svg"
   inkscape:version="1.2.1 (9c6d41e410, 2022-07-14)"
   xmlns:inkscape="http://www.inkscape.org/namespaces/inkscape"
   xmlns:sodipodi="http://sodipodi.sourceforge.net/DTD/sodipodi-0.dtd"
   xmlns="http://www.w3.org/2000/svg"
   xmlns:svg="http://www.w3.org/2000/svg">
  <defs
     id="defs12" />
  <sodipodi:namedview
     id="namedview10"
     pagecolor="#ffffff"
     bordercolor="#666666"
     borderopacity="1.0"
     inkscape:showpageshadow="2"
     inkscape:pageopacity="0.0"
     inkscape:pagecheckerboard="0"
     inkscape:deskcolor="#d1d1d1"
     showgrid="false"
     inkscape:zoom="0.4609375"
     inkscape:cx="256"
     inkscape:cy="256"
     inkscape:window-width="1680"
     inkscape:window-height="997"
     inkscape:window-x="1672"
     inkscape:window-y="-8"
     inkscape:window-maximized="1"
     inkscape:current-layer="svg8" />
  <title
     id="title2">Sunny</title>
  <path
     fill="none"
     stroke="currentColor"
     stroke-linecap="round"
     stroke-miterlimit="10"
     stroke-width="32"
     d="M256 48v48M256 416v48M403.08 108.92l-33.94 33.94M142.86 369.14l-33.94 33.94M464 256h-48M96 256H48M403.08 403.08l-33.94-33.94M142.86 142.86l-33.94-33.94"
     id="path4"
     style="fill:#ffffff" />
  <circle
     cx="256"
     cy="256"
     r="80"
     fill="none"
     stroke="currentColor"
     stroke-linecap="round"
     stroke-miterlimit="10"
     stroke-width="32"
     id="circle6" />
  <path
     style="opacity:1;fill:#502d16;fill-opacity:1;fill-rule:nonzero;stroke:none;stroke-width:2.16949;stroke-opacity:1"
     d="m 233.22034,347.52155 c -28.42733,-7.43043 -49.72633,-25.23301 -62.61934,-52.33978 -13.65011,-28.69855 -11.6025,-62.57754 5.41101,-89.52868 13.80501,-21.86856 39.22109,-38.60809 65.6698,-43.25145 26.62241,-4.67384 59.09412,5.63405 79.14911,25.12526 54.65699,53.12052 29.77378,143.10105 -44.4087,160.58692 -17.5278,4.13156 -25.55026,4.02157 -43.20188,-0.59227 z m 50.48378,-32.70359 c 23.364,-11.31032 36.25349,-32.22233 36.25349,-58.81796 0,-26.69735 -12.77796,-47.33551 -36.56283,-59.05399 -14.48736,-7.13773 -40.53065,-7.02345 -55.29075,0.24262 -23.52254,11.57962 -36.06164,32.0291 -36.06164,58.81137 0,39.0866 28.637,66.3541 67.52118,64.29214 9.00198,-0.47736 18.06292,-2.53205 24.14055,-5.47418 z"
     id="path241" />
  <path
     style="opacity:1;fill:#502d16;fill-opacity:1;fill-rule:nonzero;stroke:none;stroke-width:2.16949;stroke-opacity:1"
     d="m 134.50847,154.34983 c -10.51246,-6.47181 -40.135589,-38.81772 -40.135589,-43.82461 0,-12.041012 11.138469,-19.441799 21.329279,-14.171923 3.24445,1.677766 13.92856,11.414273 23.74248,21.636683 20.19161,21.03205 22.46376,27.75571 12.12719,35.88646 -6.99833,5.50488 -8.80888,5.55511 -17.06336,0.47339 z"
     id="path243" />
  <path
     style="opacity:1;fill:#502d16;fill-opacity:1;fill-rule:nonzero;stroke:none;stroke-width:2.16949;stroke-opacity:1"
     d="m 246.23729,106.30508 c -3.92359,-3.92359 -4.33898,-7.231633 -4.33898,-34.554398 0,-30.058171 0.0297,-30.23882 5.7163,-34.711864 7.15152,-5.625385 9.61926,-5.625385 16.77078,0 5.68656,4.473044 5.7163,4.653693 5.7163,34.711864 0,27.322765 -0.41539,30.630808 -4.33898,34.554398 -2.38644,2.38645 -6.77966,4.33899 -9.76271,4.33899 -2.98305,0 -7.37627,-1.95254 -9.76271,-4.33899 z"
     id="path245" />
  <path
     style="opacity:1;fill:#502d16;fill-opacity:1;fill-rule:nonzero;stroke:none;stroke-width:2.16949;stroke-opacity:1"
     d="m 360.42817,153.87644 c -10.33657,-8.13075 -8.06442,-14.85441 12.12719,-35.88646 9.81392,-10.22241 20.49803,-19.958917 23.74248,-21.636683 10.20208,-5.275701 21.32928,2.131748 21.32928,14.199043 0,5.17745 -32.33655,39.97232 -41.60016,44.76272 -7.71926,3.99178 -8.82477,3.88983 -15.59879,-1.43862 z"
     id="path247" />
  <path
     style="opacity:1;fill:#502d16;fill-opacity:1;fill-rule:nonzero;stroke:none;stroke-width:2.16949;stroke-opacity:1"
     d="m 406.65842,267.18553 c -6.71751,-5.43951 -6.71751,-16.93155 0,-22.37106 4.22455,-3.42083 8.95277,-4.00091 32.61138,-4.00091 24.70844,0 28.28239,0.48133 33.38678,4.49644 7.68095,6.04184 7.68095,15.33816 0,21.38 -5.10439,4.01511 -8.67834,4.49644 -33.38678,4.49644 -23.65861,0 -28.38683,-0.58008 -32.61138,-4.00091 z"
     id="path249" />
  <path
     style="opacity:1;fill:#502d16;fill-opacity:1;fill-rule:nonzero;stroke:none;stroke-width:2.16949;stroke-opacity:1"
     d="m 394.84019,414.67329 c -3.57566,-2.19522 -14.12542,-11.99742 -23.44391,-21.78268 -14.65067,-15.38453 -16.85187,-18.70114 -16.27119,-24.51632 0.42543,-4.26044 2.8073,-8.31235 6.49945,-11.0565 5.10163,-3.79173 6.64473,-3.99321 12.38207,-1.61673 3.60477,1.49314 14.89407,11.36617 25.08732,21.94005 19.61164,20.34397 21.95889,25.78076 14.73658,34.13341 -5.60889,6.48673 -11.64525,7.40814 -18.99032,2.89877 z"
     id="path251" />
  <path
     style="opacity:1;fill:#502d16;fill-opacity:1;fill-rule:nonzero;stroke:none;stroke-width:2.16949;stroke-opacity:1"
     d="m 247.61461,474.96118 c -5.68656,-4.47304 -5.7163,-4.65369 -5.7163,-34.71186 0,-27.32277 0.41539,-30.63081 4.33898,-34.5544 2.38644,-2.38645 6.77966,-4.33899 9.76271,-4.33899 2.98305,0 7.37627,1.95254 9.76271,4.33899 3.92359,3.92359 4.33898,7.23163 4.33898,34.5544 0,30.05817 -0.0297,30.23882 -5.7163,34.71186 -3.14397,2.47305 -6.91739,4.49645 -8.38539,4.49645 -1.468,0 -5.24142,-2.0234 -8.38539,-4.49645 z"
     id="path253" />
  <path
     style="opacity:1;fill:#502d16;fill-opacity:1;fill-rule:nonzero;stroke:none;stroke-width:2.16949;stroke-opacity:1"
     d="m 103.73504,416.52723 c -5.449491,-2.19565 -9.362159,-8.50795 -9.362159,-15.10397 0,-5.75128 34.548629,-41.9645 43.620509,-45.7222 5.73734,-2.37648 7.28044,-2.175 12.38207,1.61673 3.70162,2.7512 6.07363,6.79453 6.50137,11.08227 0.58689,5.88307 -1.63676,9.15708 -17.30112,25.47344 -14.87521,15.49436 -27.099,25.40989 -30.45102,24.70085 -0.35756,-0.0756 -2.7829,-0.99684 -5.38965,-2.04712 z"
     id="path255" />
  <path
     style="opacity:1;fill:#502d16;fill-opacity:1;fill-rule:nonzero;stroke:none;stroke-width:2.16949;stroke-opacity:1"
     d="m 39.343422,266.69 c -3.790513,-2.98162 -5.716303,-6.58302 -5.716303,-10.69 0,-4.10698 1.92579,-7.70838 5.716303,-10.69 5.104392,-4.01511 8.67834,-4.49644 33.386775,-4.49644 31.935783,0 37.552293,2.27136 37.552293,15.18644 0,12.91508 -5.61651,15.18644 -37.552293,15.18644 -24.708435,0 -28.282383,-0.48133 -33.386775,-4.49644 z"
     id="path257" />
</svg>
